<svg xmlns="http://www.w3.org/2000/svg" version="1.1" xmlns:xlink="http://www.w3.org/1999/xlink" width="200" height="200"><svg xmlns="http://www.w3.org/2000/svg" version="1.1" xmlns:xlink="http://www.w3.org/1999/xlink" viewBox="0 0 200 200"><rect width="200" height="200" fill="url('#gradient')"></rect><defs><linearGradient id="SvgjsLinearGradient1001" gradientTransform="rotate(80 0.5 0.5)"><stop offset="0%" stop-color="#006fff"></stop><stop offset="100%" stop-color="#0046a2"></stop></linearGradient></defs><g><g fill="#ffffff" transform="matrix(2.896223860388145,0,0,2.896223860388145,4.986755611679683,120.59152690053291)" stroke="#494949" stroke-width="0.5"><path d="M12.24-14.22L12.24-11.57L7.97-11.57L7.97 0L4.54 0L4.54-11.57L0.35-11.57L0.35-14.22L12.24-14.22ZM21.47 0L18.96-5.02L17.11-5.02L17.11 0L13.68 0L13.68-14.22L19.28-14.22Q21.81-14.22 23.23-13.10Q24.66-11.97 24.66-9.92L24.66-9.92Q24.66-8.44 24.06-7.46Q23.46-6.48 22.18-5.88L22.18-5.88L25.15-0.15L25.15 0L21.47 0ZM17.11-11.57L17.11-7.67L19.28-7.67Q20.25-7.67 20.75-8.18Q21.24-8.69 21.24-9.61Q21.24-10.53 20.74-11.05Q20.24-11.57 19.28-11.57L19.28-11.57L17.11-11.57ZM35.63 0L34.80-2.66L30.11-2.66L29.29 0L25.63 0L30.84-14.22L34.06-14.22L39.32 0L35.63 0ZM32.45-10.23L30.93-5.30L33.98-5.30L32.45-10.23ZM50.93-12.46L44.20-2.64L51.00-2.64L51.00 0L39.92 0L39.92-1.81L46.70-11.57L39.88-11.57L39.88-14.22L50.93-14.22L50.93-12.46ZM61.58 0L60.75-2.66L56.05-2.66L55.23 0L51.57 0L56.79-14.22L60.01-14.22L65.26 0L61.58 0ZM58.40-10.23L56.88-5.30L59.93-5.30L58.40-10.23Z"></path></g></g></svg><style>@media (prefers-color-scheme: light) { :root { filter: none; } }
@media (prefers-color-scheme: dark) { :root { filter: none; } }
</style></svg>